<svg width="756" height="346" viewBox="0 0 756 346" fill="none" xmlns="http://www.w3.org/2000/svg">
<g filter="url(#filter0_f_111_14)">
<rect width="652" height="242" transform="translate(52 52)" fill="black" fill-opacity="0.5"/>
</g>
<path d="M117.719 76.75V84.1562H90.9062V145H82.2812V76.75H117.719ZM117.016 122.078V117.25C117.016 113.312 117.516 109.859 118.516 106.891C119.516 103.891 120.906 101.391 122.688 99.3906C124.469 97.3906 126.547 95.8906 128.922 94.8906C131.297 93.8594 133.844 93.3438 136.562 93.3438C139.344 93.3438 141.922 93.8594 144.297 94.8906C146.672 95.8906 148.75 97.3906 150.531 99.3906C152.344 101.391 153.75 103.891 154.75 106.891C155.75 109.859 156.25 113.312 156.25 117.25V122.078C156.25 126.016 155.75 129.484 154.75 132.484C153.75 135.453 152.359 137.938 150.578 139.938C148.797 141.938 146.719 143.438 144.344 144.438C141.969 145.438 139.406 145.938 136.656 145.938C133.906 145.938 131.344 145.438 128.969 144.438C126.594 143.438 124.5 141.938 122.688 139.938C120.906 137.938 119.516 135.453 118.516 132.484C117.516 129.484 117.016 126.016 117.016 122.078ZM125.312 117.25V122.078C125.312 124.859 125.594 127.297 126.156 129.391C126.719 131.484 127.516 133.234 128.547 134.641C129.578 136.047 130.781 137.109 132.156 137.828C133.531 138.516 135.031 138.859 136.656 138.859C138.531 138.859 140.172 138.516 141.578 137.828C143.016 137.109 144.203 136.047 145.141 134.641C146.078 133.234 146.781 131.484 147.25 129.391C147.719 127.297 147.953 124.859 147.953 122.078V117.25C147.953 114.469 147.672 112.047 147.109 109.984C146.547 107.891 145.75 106.141 144.719 104.734C143.688 103.297 142.469 102.234 141.062 101.547C139.688 100.828 138.188 100.469 136.562 100.469C134.969 100.469 133.484 100.828 132.109 101.547C130.734 102.234 129.531 103.297 128.5 104.734C127.5 106.141 126.719 107.891 126.156 109.984C125.594 112.047 125.312 114.469 125.312 117.25ZM175.234 104.031V164.5H166.938V94.2812H174.484L175.234 104.031ZM203.594 117.344V122.078C203.594 126.078 203.219 129.578 202.469 132.578C201.75 135.547 200.672 138.031 199.234 140.031C197.828 142 196.094 143.484 194.031 144.484C191.969 145.453 189.609 145.938 186.953 145.938C184.297 145.938 181.984 145.438 180.016 144.438C178.078 143.406 176.438 141.922 175.094 139.984C173.781 138.047 172.734 135.719 171.953 133C171.203 130.25 170.688 127.172 170.406 123.766V116.547C170.688 112.953 171.203 109.734 171.953 106.891C172.703 104.016 173.734 101.578 175.047 99.5781C176.391 97.5469 178.031 96 179.969 94.9375C181.938 93.875 184.234 93.3438 186.859 93.3438C189.578 93.3438 191.969 93.8125 194.031 94.75C196.125 95.6875 197.875 97.1406 199.281 99.1094C200.719 101.047 201.797 103.531 202.516 106.562C203.234 109.562 203.594 113.156 203.594 117.344ZM195.297 122.078V117.344C195.297 114.531 195.078 112.078 194.641 109.984C194.234 107.891 193.578 106.156 192.672 104.781C191.766 103.406 190.625 102.375 189.25 101.688C187.875 101 186.219 100.656 184.281 100.656C182.625 100.656 181.156 101 179.875 101.688C178.625 102.375 177.547 103.312 176.641 104.5C175.734 105.656 174.984 106.984 174.391 108.484C173.797 109.953 173.359 111.484 173.078 113.078V127.281C173.609 129.281 174.312 131.172 175.188 132.953C176.062 134.703 177.234 136.125 178.703 137.219C180.203 138.312 182.094 138.859 184.375 138.859C186.281 138.859 187.922 138.516 189.297 137.828C190.672 137.141 191.797 136.109 192.672 134.734C193.578 133.328 194.234 131.578 194.641 129.484C195.078 127.359 195.297 124.891 195.297 122.078ZM243.156 116.266V123.297H221.641V116.266H243.156ZM223.328 94.2812V145H215.031V94.2812H223.328ZM249.906 94.2812V145H241.609V94.2812H249.906ZM261.391 122.078V117.25C261.391 113.312 261.891 109.859 262.891 106.891C263.891 103.891 265.281 101.391 267.062 99.3906C268.844 97.3906 270.922 95.8906 273.297 94.8906C275.672 93.8594 278.219 93.3438 280.938 93.3438C283.719 93.3438 286.297 93.8594 288.672 94.8906C291.047 95.8906 293.125 97.3906 294.906 99.3906C296.719 101.391 298.125 103.891 299.125 106.891C300.125 109.859 300.625 113.312 300.625 117.25V122.078C300.625 126.016 300.125 129.484 299.125 132.484C298.125 135.453 296.734 137.938 294.953 139.938C293.172 141.938 291.094 143.438 288.719 144.438C286.344 145.438 283.781 145.938 281.031 145.938C278.281 145.938 275.719 145.438 273.344 144.438C270.969 143.438 268.875 141.938 267.062 139.938C265.281 137.938 263.891 135.453 262.891 132.484C261.891 129.484 261.391 126.016 261.391 122.078ZM269.688 117.25V122.078C269.688 124.859 269.969 127.297 270.531 129.391C271.094 131.484 271.891 133.234 272.922 134.641C273.953 136.047 275.156 137.109 276.531 137.828C277.906 138.516 279.406 138.859 281.031 138.859C282.906 138.859 284.547 138.516 285.953 137.828C287.391 137.109 288.578 136.047 289.516 134.641C290.453 133.234 291.156 131.484 291.625 129.391C292.094 127.297 292.328 124.859 292.328 122.078V117.25C292.328 114.469 292.047 112.047 291.484 109.984C290.922 107.891 290.125 106.141 289.094 104.734C288.062 103.297 286.844 102.234 285.438 101.547C284.062 100.828 282.562 100.469 280.938 100.469C279.344 100.469 277.859 100.828 276.484 101.547C275.109 102.234 273.906 103.297 272.875 104.734C271.875 106.141 271.094 107.891 270.531 109.984C269.969 112.047 269.688 114.469 269.688 117.25ZM338.875 94.2812V101.453H318.672V94.2812H338.875ZM346.281 94.2812V145H338.031V94.2812H346.281ZM316.703 94.2812H325L323.828 118.75C323.641 122.531 323.328 125.875 322.891 128.781C322.484 131.656 321.906 134.125 321.156 136.188C320.438 138.25 319.531 139.938 318.438 141.25C317.375 142.531 316.094 143.484 314.594 144.109C313.125 144.703 311.422 145 309.484 145H307V137.359L308.641 137.219C309.734 137.125 310.672 136.812 311.453 136.281C312.266 135.75 312.922 134.969 313.422 133.938C313.953 132.875 314.375 131.516 314.688 129.859C315.031 128.203 315.297 126.234 315.484 123.953C315.672 121.672 315.812 119.016 315.906 115.984L316.703 94.2812ZM366.531 111.719H378.906C382.406 111.719 385.344 112.438 387.719 113.875C390.094 115.281 391.891 117.234 393.109 119.734C394.328 122.203 394.938 125.016 394.938 128.172C394.938 130.516 394.594 132.719 393.906 134.781C393.219 136.812 392.188 138.594 390.812 140.125C389.469 141.656 387.797 142.859 385.797 143.734C383.828 144.578 381.531 145 378.906 145H360.344V94.2812H368.594V137.875H378.906C380.844 137.875 382.375 137.422 383.5 136.516C384.625 135.609 385.422 134.438 385.891 133C386.391 131.562 386.641 130.062 386.641 128.5C386.641 126.969 386.391 125.469 385.891 124C385.422 122.531 384.625 121.312 383.5 120.344C382.375 119.344 380.844 118.844 378.906 118.844H366.531V111.719ZM410.406 94.2812V145H402.109V94.2812H410.406ZM437.453 122.922L421.703 94.2812H431.688L441.578 115.281H450.344L449.031 122.922H437.453ZM441.859 122.031L430.891 145H420.438L436.609 115.75L441.859 122.031ZM454.562 94.2812V145H446.266V94.2812H454.562ZM479.125 94.2812L463.422 122.922H451.797L450.484 115.281H459.203L469.141 94.2812H479.125ZM469.891 145L458.922 122.031L464.219 115.75L480.344 145H469.891ZM517.469 116.266V123.297H495.953V116.266H517.469ZM497.641 94.2812V145H489.344V94.2812H497.641ZM524.219 94.2812V145H515.922V94.2812H524.219ZM544.375 111.719H556.75C560.25 111.719 563.188 112.438 565.562 113.875C567.938 115.281 569.734 117.234 570.953 119.734C572.172 122.203 572.781 125.016 572.781 128.172C572.781 130.516 572.438 132.719 571.75 134.781C571.062 136.812 570.031 138.594 568.656 140.125C567.312 141.656 565.641 142.859 563.641 143.734C561.672 144.578 559.375 145 556.75 145H538.188V94.2812H546.438V137.875H556.75C558.688 137.875 560.219 137.422 561.344 136.516C562.469 135.609 563.266 134.438 563.734 133C564.234 131.562 564.484 130.062 564.484 128.5C564.484 126.969 564.234 125.469 563.734 124C563.266 122.531 562.469 121.312 561.344 120.344C560.219 119.344 558.688 118.844 556.75 118.844H544.375V111.719ZM588.25 94.2812V145H579.953V94.2812H588.25ZM620.922 145.938C617.891 145.938 615.156 145.484 612.719 144.578C610.281 143.672 608.203 142.297 606.484 140.453C604.766 138.578 603.453 136.219 602.547 133.375C601.641 130.531 601.188 127.172 601.188 123.297V117.578C601.188 113.109 601.703 109.328 602.734 106.234C603.797 103.141 605.219 100.656 607 98.7812C608.781 96.875 610.797 95.5 613.047 94.6562C615.297 93.7812 617.609 93.3438 619.984 93.3438C623.172 93.3438 625.891 93.8594 628.141 94.8906C630.391 95.9219 632.219 97.4531 633.625 99.4844C635.031 101.516 636.062 104.016 636.719 106.984C637.406 109.953 637.75 113.375 637.75 117.25V122.078H606.062V115H629.453V113.828C629.328 111.203 628.969 108.891 628.375 106.891C627.812 104.891 626.875 103.328 625.562 102.203C624.25 101.047 622.391 100.469 619.984 100.469C618.453 100.469 617.031 100.734 615.719 101.266C614.438 101.766 613.328 102.656 612.391 103.938C611.484 105.188 610.766 106.922 610.234 109.141C609.734 111.359 609.484 114.172 609.484 117.578V123.297C609.484 126.016 609.734 128.359 610.234 130.328C610.766 132.266 611.531 133.875 612.531 135.156C613.562 136.406 614.812 137.344 616.281 137.969C617.781 138.562 619.484 138.859 621.391 138.859C624.172 138.859 626.469 138.328 628.281 137.266C630.094 136.172 631.672 134.781 633.016 133.094L637.375 138.297C636.469 139.578 635.281 140.812 633.812 142C632.375 143.156 630.594 144.109 628.469 144.859C626.375 145.578 623.859 145.938 620.922 145.938ZM78.3906 207.281V258H70.0938V207.281H78.3906ZM106.281 207.281L85.8906 236.344H75.625L74.3125 228.75H82.5156L96.3438 207.281H106.281ZM97.0938 258L82.2344 235.031L87.5312 228.75L107.5 258H97.0938ZM127.234 252.75L138.531 207.281H147.344L130.609 265.828C130.203 267.078 129.656 268.422 128.969 269.859C128.312 271.328 127.469 272.719 126.438 274.031C125.406 275.344 124.172 276.406 122.734 277.219C121.297 278.062 119.609 278.484 117.672 278.484C117.078 278.484 116.312 278.391 115.375 278.203C114.469 278.016 113.812 277.859 113.406 277.734V270.703C113.594 270.734 113.891 270.766 114.297 270.797C114.703 270.859 115 270.891 115.188 270.891C116.812 270.891 118.188 270.625 119.312 270.094C120.469 269.594 121.453 268.734 122.266 267.516C123.078 266.328 123.766 264.688 124.328 262.594L127.234 252.75ZM119.922 207.281L130 246.656L132.156 255.797L126.25 258.984L110.875 207.281H119.922ZM163.797 217.031V277.5H155.5V207.281H163.047L163.797 217.031ZM192.156 230.344V235.078C192.156 239.078 191.781 242.578 191.031 245.578C190.312 248.547 189.234 251.031 187.797 253.031C186.391 255 184.656 256.484 182.594 257.484C180.531 258.453 178.172 258.938 175.516 258.938C172.859 258.938 170.547 258.438 168.578 257.438C166.641 256.406 165 254.922 163.656 252.984C162.344 251.047 161.297 248.719 160.516 246C159.766 243.25 159.25 240.172 158.969 236.766V229.547C159.25 225.953 159.766 222.734 160.516 219.891C161.266 217.016 162.297 214.578 163.609 212.578C164.953 210.547 166.594 209 168.531 207.938C170.5 206.875 172.797 206.344 175.422 206.344C178.141 206.344 180.531 206.812 182.594 207.75C184.688 208.688 186.438 210.141 187.844 212.109C189.281 214.047 190.359 216.531 191.078 219.562C191.797 222.562 192.156 226.156 192.156 230.344ZM183.859 235.078V230.344C183.859 227.531 183.641 225.078 183.203 222.984C182.797 220.891 182.141 219.156 181.234 217.781C180.328 216.406 179.188 215.375 177.812 214.688C176.438 214 174.781 213.656 172.844 213.656C171.188 213.656 169.719 214 168.438 214.688C167.188 215.375 166.109 216.312 165.203 217.5C164.297 218.656 163.547 219.984 162.953 221.484C162.359 222.953 161.922 224.484 161.641 226.078V240.281C162.172 242.281 162.875 244.172 163.75 245.953C164.625 247.703 165.797 249.125 167.266 250.219C168.766 251.312 170.656 251.859 172.938 251.859C174.844 251.859 176.484 251.516 177.859 250.828C179.234 250.141 180.359 249.109 181.234 247.734C182.141 246.328 182.797 244.578 183.203 242.484C183.641 240.359 183.859 237.891 183.859 235.078ZM201.109 235.078V230.25C201.109 226.312 201.609 222.859 202.609 219.891C203.609 216.891 205 214.391 206.781 212.391C208.562 210.391 210.641 208.891 213.016 207.891C215.391 206.859 217.938 206.344 220.656 206.344C223.438 206.344 226.016 206.859 228.391 207.891C230.766 208.891 232.844 210.391 234.625 212.391C236.438 214.391 237.844 216.891 238.844 219.891C239.844 222.859 240.344 226.312 240.344 230.25V235.078C240.344 239.016 239.844 242.484 238.844 245.484C237.844 248.453 236.453 250.938 234.672 252.938C232.891 254.938 230.812 256.438 228.438 257.438C226.062 258.438 223.5 258.938 220.75 258.938C218 258.938 215.438 258.438 213.062 257.438C210.688 256.438 208.594 254.938 206.781 252.938C205 250.938 203.609 248.453 202.609 245.484C201.609 242.484 201.109 239.016 201.109 235.078ZM209.406 230.25V235.078C209.406 237.859 209.688 240.297 210.25 242.391C210.812 244.484 211.609 246.234 212.641 247.641C213.672 249.047 214.875 250.109 216.25 250.828C217.625 251.516 219.125 251.859 220.75 251.859C222.625 251.859 224.266 251.516 225.672 250.828C227.109 250.109 228.297 249.047 229.234 247.641C230.172 246.234 230.875 244.484 231.344 242.391C231.812 240.297 232.047 237.859 232.047 235.078V230.25C232.047 227.469 231.766 225.047 231.203 222.984C230.641 220.891 229.844 219.141 228.812 217.734C227.781 216.297 226.562 215.234 225.156 214.547C223.781 213.828 222.281 213.469 220.656 213.469C219.062 213.469 217.578 213.828 216.203 214.547C214.828 215.234 213.625 216.297 212.594 217.734C211.594 219.141 210.812 220.891 210.25 222.984C209.688 225.047 209.406 227.469 209.406 230.25ZM259.328 217.031V277.5H251.031V207.281H258.578L259.328 217.031ZM287.688 230.344V235.078C287.688 239.078 287.312 242.578 286.562 245.578C285.844 248.547 284.766 251.031 283.328 253.031C281.922 255 280.188 256.484 278.125 257.484C276.062 258.453 273.703 258.938 271.047 258.938C268.391 258.938 266.078 258.438 264.109 257.438C262.172 256.406 260.531 254.922 259.188 252.984C257.875 251.047 256.828 248.719 256.047 246C255.297 243.25 254.781 240.172 254.5 236.766V229.547C254.781 225.953 255.297 222.734 256.047 219.891C256.797 217.016 257.828 214.578 259.141 212.578C260.484 210.547 262.125 209 264.062 207.938C266.031 206.875 268.328 206.344 270.953 206.344C273.672 206.344 276.062 206.812 278.125 207.75C280.219 208.688 281.969 210.141 283.375 212.109C284.812 214.047 285.891 216.531 286.609 219.562C287.328 222.562 287.688 226.156 287.688 230.344ZM279.391 235.078V230.344C279.391 227.531 279.172 225.078 278.734 222.984C278.328 220.891 277.672 219.156 276.766 217.781C275.859 216.406 274.719 215.375 273.344 214.688C271.969 214 270.312 213.656 268.375 213.656C266.719 213.656 265.25 214 263.969 214.688C262.719 215.375 261.641 216.312 260.734 217.5C259.828 218.656 259.078 219.984 258.484 221.484C257.891 222.953 257.453 224.484 257.172 226.078V240.281C257.703 242.281 258.406 244.172 259.281 245.953C260.156 247.703 261.328 249.125 262.797 250.219C264.297 251.312 266.188 251.859 268.469 251.859C270.375 251.859 272.016 251.516 273.391 250.828C274.766 250.141 275.891 249.109 276.766 247.734C277.672 246.328 278.328 244.578 278.734 242.484C279.172 240.359 279.391 237.891 279.391 235.078ZM312.859 207.281V258H304.562V207.281H312.859ZM326.688 207.281V214.312H290.922V207.281H326.688ZM342.438 224.719H354.812C358.312 224.719 361.25 225.438 363.625 226.875C366 228.281 367.797 230.234 369.016 232.734C370.234 235.203 370.844 238.016 370.844 241.172C370.844 243.516 370.5 245.719 369.812 247.781C369.125 249.812 368.094 251.594 366.719 253.125C365.375 254.656 363.703 255.859 361.703 256.734C359.734 257.578 357.438 258 354.812 258H336.25V207.281H344.5V250.875H354.812C356.75 250.875 358.281 250.422 359.406 249.516C360.531 248.609 361.328 247.438 361.797 246C362.297 244.562 362.547 243.062 362.547 241.5C362.547 239.969 362.297 238.469 361.797 237C361.328 235.531 360.531 234.312 359.406 233.344C358.281 232.344 356.75 231.844 354.812 231.844H342.438V224.719ZM386.312 207.281V258H378.016V207.281H386.312ZM441.438 235.359L455.922 189.75H465.859L446.219 246.609C445.594 248.203 444.922 249.75 444.203 251.25C443.516 252.719 442.672 254.031 441.672 255.188C440.672 256.344 439.422 257.266 437.922 257.953C436.422 258.641 434.547 258.984 432.297 258.984C431.609 258.984 430.812 258.938 429.906 258.844C429.031 258.781 428.469 258.703 428.219 258.609L428.406 251.391C428.688 251.453 429.266 251.516 430.141 251.578C431.047 251.609 431.688 251.625 432.062 251.625C433.469 251.625 434.547 251.266 435.297 250.547C436.078 249.828 436.688 248.922 437.125 247.828C437.562 246.703 437.984 245.562 438.391 244.406L441.438 235.359ZM430.562 189.75L445.281 232.266L447.297 240.656L440.031 241.219L420.953 189.75H430.562ZM478.984 217.031V277.5H470.688V207.281H478.234L478.984 217.031ZM507.344 230.344V235.078C507.344 239.078 506.969 242.578 506.219 245.578C505.5 248.547 504.422 251.031 502.984 253.031C501.578 255 499.844 256.484 497.781 257.484C495.719 258.453 493.359 258.938 490.703 258.938C488.047 258.938 485.734 258.438 483.766 257.438C481.828 256.406 480.188 254.922 478.844 252.984C477.531 251.047 476.484 248.719 475.703 246C474.953 243.25 474.438 240.172 474.156 236.766V229.547C474.438 225.953 474.953 222.734 475.703 219.891C476.453 217.016 477.484 214.578 478.797 212.578C480.141 210.547 481.781 209 483.719 207.938C485.688 206.875 487.984 206.344 490.609 206.344C493.328 206.344 495.719 206.812 497.781 207.75C499.875 208.688 501.625 210.141 503.031 212.109C504.469 214.047 505.547 216.531 506.266 219.562C506.984 222.562 507.344 226.156 507.344 230.344ZM499.047 235.078V230.344C499.047 227.531 498.828 225.078 498.391 222.984C497.984 220.891 497.328 219.156 496.422 217.781C495.516 216.406 494.375 215.375 493 214.688C491.625 214 489.969 213.656 488.031 213.656C486.375 213.656 484.906 214 483.625 214.688C482.375 215.375 481.297 216.312 480.391 217.5C479.484 218.656 478.734 219.984 478.141 221.484C477.547 222.953 477.109 224.484 476.828 226.078V240.281C477.359 242.281 478.062 244.172 478.938 245.953C479.812 247.703 480.984 249.125 482.453 250.219C483.953 251.312 485.844 251.859 488.125 251.859C490.031 251.859 491.672 251.516 493.047 250.828C494.422 250.141 495.547 249.109 496.422 247.734C497.328 246.328 497.984 244.578 498.391 242.484C498.828 240.359 499.047 237.891 499.047 235.078ZM542.875 249.328V221.812C542.875 219.812 542.562 218.203 541.938 216.984C541.344 215.766 540.438 214.875 539.219 214.312C538.031 213.75 536.531 213.469 534.719 213.469C532.969 213.469 531.453 213.828 530.172 214.547C528.922 215.266 527.953 216.219 527.266 217.406C526.609 218.594 526.281 219.906 526.281 221.344H517.984C517.984 219.531 518.375 217.734 519.156 215.953C519.969 214.172 521.125 212.562 522.625 211.125C524.125 209.656 525.922 208.5 528.016 207.656C530.141 206.781 532.516 206.344 535.141 206.344C538.266 206.344 541.031 206.859 543.438 207.891C545.844 208.891 547.734 210.531 549.109 212.812C550.484 215.094 551.172 218.125 551.172 221.906V246.938C551.172 248.625 551.297 250.422 551.547 252.328C551.828 254.234 552.219 255.875 552.719 257.25V258H544.141C543.734 257 543.422 255.672 543.203 254.016C542.984 252.328 542.875 250.766 542.875 249.328ZM544.188 227.25L544.281 233.344H538.516C536.547 233.344 534.75 233.562 533.125 234C531.531 234.438 530.156 235.078 529 235.922C527.844 236.734 526.953 237.75 526.328 238.969C525.734 240.188 525.438 241.578 525.438 243.141C525.438 245.172 525.719 246.797 526.281 248.016C526.844 249.203 527.688 250.062 528.812 250.594C529.938 251.125 531.359 251.391 533.078 251.391C535.172 251.391 537.016 250.906 538.609 249.938C540.203 248.969 541.438 247.797 542.312 246.422C543.219 245.047 543.641 243.766 543.578 242.578L545.406 246.469C545.281 247.688 544.875 249.016 544.188 250.453C543.531 251.859 542.609 253.219 541.422 254.531C540.234 255.812 538.828 256.875 537.203 257.719C535.609 258.531 533.812 258.938 531.812 258.938C528.875 258.938 526.297 258.375 524.078 257.25C521.891 256.125 520.188 254.469 518.969 252.281C517.75 250.094 517.141 247.391 517.141 244.172C517.141 241.734 517.562 239.484 518.406 237.422C519.25 235.359 520.5 233.578 522.156 232.078C523.812 230.547 525.891 229.359 528.391 228.516C530.922 227.672 533.844 227.25 537.156 227.25H544.188ZM592.375 207.281V214.453H572.172V207.281H592.375ZM599.781 207.281V258H591.531V207.281H599.781ZM570.203 207.281H578.5L577.328 231.75C577.141 235.531 576.828 238.875 576.391 241.781C575.984 244.656 575.406 247.125 574.656 249.188C573.938 251.25 573.031 252.938 571.938 254.25C570.875 255.531 569.594 256.484 568.094 257.109C566.625 257.703 564.922 258 562.984 258H560.5V250.359L562.141 250.219C563.234 250.125 564.172 249.812 564.953 249.281C565.766 248.75 566.422 247.969 566.922 246.938C567.453 245.875 567.875 244.516 568.188 242.859C568.531 241.203 568.797 239.234 568.984 236.953C569.172 234.672 569.312 232.016 569.406 228.984L570.203 207.281ZM637.938 249.328V221.812C637.938 219.812 637.625 218.203 637 216.984C636.406 215.766 635.5 214.875 634.281 214.312C633.094 213.75 631.594 213.469 629.781 213.469C628.031 213.469 626.516 213.828 625.234 214.547C623.984 215.266 623.016 216.219 622.328 217.406C621.672 218.594 621.344 219.906 621.344 221.344H613.047C613.047 219.531 613.438 217.734 614.219 215.953C615.031 214.172 616.188 212.562 617.688 211.125C619.188 209.656 620.984 208.5 623.078 207.656C625.203 206.781 627.578 206.344 630.203 206.344C633.328 206.344 636.094 206.859 638.5 207.891C640.906 208.891 642.797 210.531 644.172 212.812C645.547 215.094 646.234 218.125 646.234 221.906V246.938C646.234 248.625 646.359 250.422 646.609 252.328C646.891 254.234 647.281 255.875 647.781 257.25V258H639.203C638.797 257 638.484 255.672 638.266 254.016C638.047 252.328 637.938 250.766 637.938 249.328ZM639.25 227.25L639.344 233.344H633.578C631.609 233.344 629.812 233.562 628.188 234C626.594 234.438 625.219 235.078 624.062 235.922C622.906 236.734 622.016 237.75 621.391 238.969C620.797 240.188 620.5 241.578 620.5 243.141C620.5 245.172 620.781 246.797 621.344 248.016C621.906 249.203 622.75 250.062 623.875 250.594C625 251.125 626.422 251.391 628.141 251.391C630.234 251.391 632.078 250.906 633.672 249.938C635.266 248.969 636.5 247.797 637.375 246.422C638.281 245.047 638.703 243.766 638.641 242.578L640.469 246.469C640.344 247.688 639.938 249.016 639.25 250.453C638.594 251.859 637.672 253.219 636.484 254.531C635.297 255.812 633.891 256.875 632.266 257.719C630.672 258.531 628.875 258.938 626.875 258.938C623.938 258.938 621.359 258.375 619.141 257.25C616.953 256.125 615.25 254.469 614.031 252.281C612.812 250.094 612.203 247.391 612.203 244.172C612.203 241.734 612.625 239.484 613.469 237.422C614.312 235.359 615.562 233.578 617.219 232.078C618.875 230.547 620.953 229.359 623.453 228.516C625.984 227.672 628.906 227.25 632.219 227.25H639.25Z" fill="#EBEBEB"/>
<defs>
<filter id="filter0_f_111_14" x="0" y="0" width="756" height="346" filterUnits="userSpaceOnUse" color-interpolation-filters="sRGB">
<feFlood flood-opacity="0" result="BackgroundImageFix"/>
<feBlend mode="normal" in="SourceGraphic" in2="BackgroundImageFix" result="shape"/>
<feGaussianBlur stdDeviation="26" result="effect1_foregroundBlur_111_14"/>
</filter>
</defs>
</svg>
